<svg width="271" height="24" viewBox="0 0 271 24" fill="none" xmlns="http://www.w3.org/2000/svg">
<g clip-path="url(#clip0_565_4702)">
<path d="M17.3749 23.9541C15.927 23.9541 14.6239 23.6329 13.4655 23.0363C12.3072 22.4398 11.3902 21.6138 10.7145 20.5124C10.0388 19.457 9.70098 18.218 9.70098 16.8413V6.7457C9.70098 6.37858 9.60445 6.05736 9.4114 5.78203C9.21834 5.50669 8.97703 5.27725 8.68744 5.09369C8.39786 4.91013 8.06002 4.81836 7.67391 4.81836C7.2878 4.81836 6.94996 4.91013 6.66037 5.09369C6.37079 5.27725 6.12947 5.50669 5.93642 5.78203C5.74337 6.05736 5.6951 6.37858 5.6951 6.7457V23.5411H0V7.1587C0 5.78203 0.337845 4.54302 1.01354 3.48757C1.68923 2.43212 2.60623 1.56023 3.76456 0.963671C4.92289 0.321224 6.27427 0 7.72217 0C9.17008 0 10.4732 0.321224 11.6798 0.917782C12.8381 1.51434 13.7551 2.38623 14.4308 3.44168C15.1065 4.49713 15.4443 5.73614 15.4443 7.11281V17.2084C15.4443 17.5755 15.5409 17.8967 15.6857 18.1721C15.8787 18.4474 16.12 18.7228 16.4096 18.8604C16.6992 19.044 17.037 19.1358 17.3749 19.1358C17.7127 19.1358 18.0988 19.044 18.3884 18.8604C18.678 18.6769 18.9193 18.4474 19.1124 18.1721C19.3054 17.8967 19.402 17.5296 19.402 17.2084V0.413002H25.0971V16.8413C25.0971 18.218 24.7592 19.457 24.0835 20.5124C23.4078 21.5679 22.4908 22.4398 21.3325 23.0363C20.1742 23.6329 18.8228 23.9541 17.3749 23.9541Z" fill="white"/>
<path d="M28.8135 23.5412V7.29645C28.8135 6.01156 29.1513 4.81844 29.827 3.80888C30.5027 2.79932 31.3714 1.97332 32.4815 1.33087C33.5916 0.73431 34.8464 0.413086 36.2461 0.413086H45.2714V5.04789H36.97C36.3426 5.04789 35.7634 5.27733 35.3291 5.69033C34.8947 6.14922 34.6534 6.654 34.6534 7.29645V10.6464H44.113V15.2353H34.6534V23.5412H28.8135Z" fill="white"/>
<path d="M60.9568 23.5412C59.4606 23.5412 58.1575 23.22 57.0475 22.5775C55.9374 21.9351 55.0687 21.1091 54.4412 20.0536C53.8138 18.9982 53.5242 17.8051 53.5242 16.4743V5.09377H46.9121V0.413086H65.8797V5.04789H59.3159V16.979C59.3159 17.5297 59.5089 17.9427 59.895 18.3098C60.2811 18.6769 60.7638 18.8605 61.2947 18.8605H63.2252V23.4953H61.0051L60.9568 23.5412Z" fill="white"/>
<path d="M70.2233 23.5412V18.9064H80.6C81.0827 18.9064 81.4688 18.8146 81.8549 18.5852C82.241 18.3557 82.5306 18.0804 82.7236 17.7592C82.9167 17.3921 83.0132 17.025 83.0132 16.6119C83.0132 16.1989 82.9167 15.7859 82.6754 15.4188C82.434 15.0517 82.1444 14.7764 81.8066 14.5469C81.4688 14.3175 81.0344 14.2257 80.5517 14.2257H76.7872C75.3876 14.2257 74.0844 13.9504 72.9261 13.4456C71.7678 12.8949 70.8508 12.1607 70.1751 11.1053C69.4994 10.0957 69.1133 8.85669 69.1133 7.43413C69.1133 6.01157 69.4511 4.81845 70.0786 3.763C70.706 2.70755 71.623 1.92744 72.6848 1.33088C73.7949 0.780208 75.0014 0.458984 76.3528 0.458984H87.0673V5.09378H77.0285C76.5941 5.09378 76.208 5.18556 75.8702 5.36912C75.5323 5.55267 75.2428 5.82801 75.0497 6.14923C74.8566 6.47046 74.7601 6.83757 74.7601 7.20468C74.7601 7.5718 74.8566 7.9848 75.0497 8.30602C75.2428 8.62724 75.4841 8.85669 75.8702 9.08614C76.208 9.26969 76.5941 9.36147 77.0285 9.36147H80.9379C82.4823 9.36147 83.8337 9.63681 84.992 10.1875C86.1503 10.7381 87.0191 11.5183 87.6465 12.5278C88.2739 13.5374 88.5635 14.7305 88.5635 16.1072C88.5635 17.4838 88.2257 18.9982 87.5982 20.1454C86.9708 21.2467 86.0538 22.1186 84.9437 22.6693C83.8337 23.22 82.6271 23.5412 81.2757 23.5412H70.0786H70.2233Z" fill="white"/>
<path d="M131.518 23.5412C129.539 23.5412 127.754 23.2659 126.161 22.6693C124.568 22.0728 123.217 21.2926 122.059 20.2372C120.948 19.1817 120.08 17.9427 119.501 16.5661C118.921 15.1435 118.632 13.6292 118.632 12.023C118.632 10.4169 118.921 8.90258 119.501 7.48002C120.08 6.10334 120.948 4.86434 122.107 3.80889C123.265 2.75344 124.617 1.92744 126.209 1.33088C127.802 0.734319 129.588 0.458984 131.518 0.458984H135.283V5.09378H131.663C130.553 5.09378 129.588 5.27734 128.671 5.59856C127.802 5.91979 127.03 6.42457 126.354 7.06701C125.727 7.70946 125.244 8.44369 124.906 9.26969C124.568 10.0957 124.423 11.0135 124.423 11.9771C124.423 12.9408 124.568 13.9045 124.906 14.7305C125.244 15.5565 125.727 16.2907 126.354 16.9332C126.981 17.5756 127.754 18.0345 128.671 18.4016C129.539 18.7687 130.553 18.9523 131.663 18.9523H135.283V23.5871H131.518V23.5412Z" fill="white"/>
<path d="M138.082 23.5412V18.9064H142.233V5.09377H138.082V0.413086H152.272V5.04789H148.073V18.8605H152.272V23.4953H138.082V23.5412Z" fill="white"/>
<path d="M153.816 23.7247L161.683 3.30405C162.118 2.2486 162.745 1.51438 163.662 0.963708C164.579 0.458928 165.593 0.183594 166.703 0.183594C167.813 0.183594 168.875 0.413039 169.792 0.917819C170.709 1.4226 171.336 2.20271 171.77 3.25816L179.637 23.7247H173.363L171.819 19.2735H161.49L159.898 23.7247H153.816ZM163.035 14.7304H170.323L167.234 5.46084C167.234 5.36906 167.137 5.27728 167.041 5.2314C166.944 5.18551 166.848 5.13962 166.751 5.13962C166.655 5.13962 166.558 5.13962 166.461 5.2314C166.365 5.27728 166.317 5.36906 166.317 5.46084L163.035 14.7304Z" fill="white"/>
<path d="M187.552 23.5412C186.008 23.5412 184.704 23.22 183.546 22.5775C182.388 21.9351 181.519 21.1091 180.892 20.0536C180.264 18.9982 179.975 17.8051 179.975 16.5202V0.413086H185.815V16.8873C185.815 17.4379 186.008 17.8968 186.394 18.3098C186.78 18.6769 187.262 18.9064 187.842 18.9064H194.261V23.5412H187.552Z" fill="white"/>
<path d="M199.618 23.5412V0.413086H205.458V9.49913H214.918V0.413086H220.758V23.5412H214.918V14.1339H205.458V23.5412H199.618Z" fill="white"/>
<path d="M235.237 23.7247C233.21 23.7247 231.424 23.3576 229.88 22.5775C228.335 21.7974 227.129 20.696 226.212 19.2735C225.343 17.8509 224.86 16.153 224.86 14.1339V0.229492H230.604V14.501C230.604 15.327 230.797 16.1071 231.183 16.7955C231.569 17.4838 232.1 18.0345 232.776 18.4475C233.451 18.8605 234.272 19.044 235.189 19.044C236.106 19.044 236.926 18.8605 237.602 18.4475C238.278 18.0345 238.809 17.4838 239.195 16.7955C239.581 16.1071 239.774 15.327 239.774 14.501V0.229492H245.517V14.1798C245.517 16.153 245.083 17.8509 244.214 19.3194C243.345 20.7419 242.139 21.8433 240.546 22.6234C239.002 23.4035 237.216 23.7706 235.189 23.7706L235.237 23.7247Z" fill="white"/>
<path d="M249.667 23.5412V0.413086H263.76C264.967 0.413086 266.077 0.688421 267.042 1.1932C268.008 1.69798 268.828 2.38632 269.407 3.3041C269.986 4.22188 270.324 5.27733 270.324 6.51634C270.324 7.75534 270.179 7.9389 269.842 8.58135C269.552 9.22379 269.118 9.82035 268.587 10.3251C268.056 10.8299 267.477 11.2429 266.801 11.5641C267.573 11.8395 268.297 12.2984 268.925 12.849C269.552 13.4456 270.035 14.088 270.372 14.8682C270.71 15.6024 270.903 16.4284 270.903 17.3003C270.903 18.1722 270.614 19.6406 269.986 20.5584C269.359 21.5221 268.538 22.2563 267.525 22.7611C266.511 23.2659 265.353 23.5412 264.098 23.5412H249.619H249.667ZM255.507 9.68268H262.071C262.506 9.68268 262.94 9.59091 263.278 9.36146C263.664 9.13202 263.953 8.85668 264.146 8.48957C264.34 8.12246 264.436 7.75534 264.436 7.38823C264.436 7.02112 264.34 6.56223 264.146 6.19511C263.953 5.87389 263.664 5.59855 263.278 5.36911C262.94 5.18555 262.506 5.09377 262.023 5.09377H255.459V9.68268H255.507ZM255.507 18.9523H262.65C263.181 18.9523 263.616 18.8605 263.953 18.6311C264.34 18.4016 264.629 18.1263 264.822 17.7592C265.063 17.3921 265.16 16.979 265.16 16.5202C265.16 16.0613 265.063 15.6483 264.822 15.2812C264.581 14.914 264.291 14.5928 263.953 14.4093C263.567 14.1798 263.133 14.088 262.65 14.088H255.507V18.9982V18.9523Z" fill="white"/>
<path d="M115.736 7.29637C115.109 5.8738 114.24 4.58891 113.13 3.48757C112.02 2.38623 110.669 1.51434 109.076 0.917782C107.483 0.321224 105.746 0 103.767 0C101.788 0 100.099 0.321224 98.5061 0.917782C96.9134 1.51434 95.562 2.38623 94.452 3.48757C93.2936 4.58891 92.4249 5.8738 91.8457 7.29637C91.2183 8.71893 90.9287 10.2792 90.9287 11.9771C90.9287 13.675 91.2183 15.2352 91.8457 16.6577C92.4731 18.1262 93.3419 19.3652 94.452 20.4665C95.562 21.5679 96.9617 22.4398 98.5061 23.0363C100.051 23.6329 101.836 23.9541 103.767 23.9541C105.697 23.9541 107.483 23.6329 109.076 23.0363C110.669 22.4398 112.02 21.5679 113.13 20.4665C114.24 19.3652 115.109 18.0803 115.736 16.6577C116.364 15.1893 116.653 13.6291 116.653 11.9771C116.653 10.325 116.364 8.76482 115.736 7.29637ZM108.835 6.79159C109.462 7.43403 109.945 8.21415 110.282 9.08604C110.572 9.82027 110.717 10.6004 110.765 11.4264C109.8 11.1969 108.786 11.0134 107.821 10.738C105.794 10.1415 104.587 8.76482 104.249 6.7457C104.153 6.10325 104.056 5.4608 103.96 4.72658C104.925 4.72658 105.794 4.91013 106.566 5.27725C107.435 5.64436 108.159 6.14914 108.786 6.79159H108.835ZM98.6992 6.79159C99.3266 6.14914 100.099 5.59847 100.919 5.27725C101.788 4.91013 102.705 4.72658 103.719 4.72658C104.732 4.72658 103.863 4.72658 103.912 4.72658C103.477 9.17782 101.643 11.0593 96.7203 11.4723C96.7203 10.6004 96.9134 9.82027 97.203 9.08604C97.5408 8.21415 98.0235 7.43403 98.6509 6.79159H98.6992ZM110.331 14.8222C109.993 15.6941 109.51 16.4742 108.883 17.1625C108.255 17.8509 107.531 18.3556 106.663 18.7228C105.794 19.0899 104.829 19.2734 103.815 19.2734C102.802 19.2734 101.836 19.0899 101.016 18.7228C100.147 18.3556 99.4231 17.805 98.7957 17.1625C98.1682 16.4742 97.6856 15.74 97.3478 14.8681C97.0099 13.9962 96.8651 13.0325 96.8651 12.0229C96.8651 11.0134 96.8651 11.7935 96.8651 11.6558C102.56 12.6195 103.236 13.4914 104.105 19.1358C104.153 18.3556 104.201 17.6673 104.298 17.0249C104.587 13.9044 106.132 12.3442 109.365 11.7935C109.896 11.7017 110.427 11.6558 110.958 11.5641C110.958 11.7017 110.958 11.7935 110.958 11.9312C110.958 12.9866 110.765 13.9044 110.427 14.8222H110.331Z" fill="#D5F70A"/>
</g>
<defs>
<clipPath id="clip0_565_4702">
<rect width="271" height="24" fill="white"/>
</clipPath>
</defs>
</svg>
