<svg width="1920" height="1080" viewBox="0 0 1920 1080" fill="none" xmlns="http://www.w3.org/2000/svg">
<g clip-path="url(#clip0_565_4888)">
<rect width="1920" height="1080" fill="black"/>
<g clip-path="url(#clip1_565_4888)">
<path d="M2059.83 357.717C2038.51 307.275 2008.98 261.715 1971.25 222.663C1933.52 183.612 1887.58 152.696 1833.45 131.543C1779.31 110.39 1720.26 99 1653 99C1585.74 99 1528.33 110.39 1474.19 131.543C1420.06 152.696 1374.12 183.612 1336.39 222.663C1297.02 261.715 1267.49 307.275 1247.81 357.717C1226.48 408.159 1216.64 463.482 1216.64 523.686C1216.64 583.891 1226.48 639.214 1247.81 689.656C1269.14 741.725 1298.66 785.658 1336.39 824.709C1374.12 863.761 1421.7 894.677 1474.19 915.83C1526.69 936.983 1587.38 948.373 1653 948.373C1718.62 948.373 1779.31 936.983 1833.45 915.83C1887.58 894.677 1933.52 863.761 1971.25 824.709C2008.98 785.658 2038.51 740.098 2059.83 689.656C2081.16 637.587 2091 582.264 2091 523.686C2091 465.109 2081.16 409.786 2059.83 357.717ZM1825.25 339.818C1846.57 362.598 1862.98 390.26 1874.46 421.176C1884.3 447.21 1889.22 474.872 1890.87 504.161C1858.06 496.025 1823.61 489.516 1790.8 479.753C1721.9 458.6 1680.89 409.786 1669.4 338.191C1666.12 315.411 1662.84 292.631 1659.56 266.597C1692.37 266.597 1721.9 273.105 1748.15 286.122C1777.67 299.14 1802.28 317.038 1823.61 339.818H1825.25ZM1480.75 339.818C1502.08 317.038 1528.33 297.512 1556.21 286.122C1585.74 273.105 1616.91 266.597 1651.36 266.597C1685.81 266.597 1656.28 266.597 1657.92 266.597C1643.16 424.43 1580.82 491.143 1413.49 505.788C1413.49 474.872 1420.06 447.21 1429.9 421.176C1441.38 390.26 1457.79 362.598 1479.11 339.818H1480.75ZM1874.46 624.57C1862.98 655.486 1846.57 683.147 1825.25 707.555C1803.92 731.962 1779.31 749.86 1749.79 762.878C1720.26 775.895 1687.45 782.403 1653 782.403C1618.55 782.403 1585.74 775.895 1557.85 762.878C1528.33 749.86 1503.72 730.335 1482.39 707.555C1461.07 683.147 1444.66 657.113 1433.18 626.197C1421.7 595.281 1416.78 561.111 1416.78 525.314C1416.78 489.516 1416.78 517.178 1416.78 512.296C1610.35 546.467 1633.31 577.382 1662.84 777.522C1664.48 749.86 1666.12 725.453 1669.4 702.673C1679.25 592.027 1731.74 536.704 1841.65 517.178C1859.7 513.924 1877.74 512.296 1895.79 509.042C1895.79 513.924 1895.79 517.178 1895.79 522.059C1895.79 559.484 1889.22 592.027 1877.74 624.57H1874.46Z" fill="#0A0310"/>
</g>
<g filter="url(#filter0_d_565_4888)">
<path d="M6.85715 1007C6.85715 1295.36 -90.1225 1376.7 -384 1376.7C-38.6939 1376.7 -9.30612 1509.79 6.85715 1739C6.85715 1465.42 64.1633 1391.48 336 1376.7C42.1224 1347.12 6.85715 1258.39 6.85715 1007Z" fill="white"/>
</g>
<g filter="url(#filter1_f_565_4888)">
<path d="M1229.5 1028.44C1849.7 917.613 1789.09 1151.92 1755.9 1255.06L33.2701 1229.05C-4.10983 1091.59 151.302 845.296 353.756 859.192C872.469 894.795 674.4 1127.63 1229.5 1028.44Z" fill="#9632E4"/>
</g>
<g filter="url(#filter2_f_565_4888)">
<path d="M1250.03 -14.1831C631.576 105.994 688.639 -129.198 720.275 -232.835L2443.1 -232.835C2482.55 -95.9562 2330.87 152.659 2128.23 141.822C1609.04 114.055 1803.57 -121.746 1250.03 -14.1831Z" fill="#9632E4"/>
</g>
</g>
<defs>
<filter id="filter0_d_565_4888" x="-484" y="907" width="920" height="932" filterUnits="userSpaceOnUse" color-interpolation-filters="sRGB">
<feFlood flood-opacity="0" result="BackgroundImageFix"/>
<feColorMatrix in="SourceAlpha" type="matrix" values="0 0 0 0 0 0 0 0 0 0 0 0 0 0 0 0 0 0 127 0" result="hardAlpha"/>
<feOffset/>
<feGaussianBlur stdDeviation="50"/>
<feComposite in2="hardAlpha" operator="out"/>
<feColorMatrix type="matrix" values="0 0 0 0 1 0 0 0 0 1 0 0 0 0 1 0 0 0 0.25 0"/>
<feBlend mode="normal" in2="BackgroundImageFix" result="effect1_dropShadow_565_4888"/>
<feBlend mode="normal" in="SourceGraphic" in2="effect1_dropShadow_565_4888" result="shape"/>
</filter>
<filter id="filter1_f_565_4888" x="-672.307" y="158.628" width="3147.21" height="1796.44" filterUnits="userSpaceOnUse" color-interpolation-filters="sRGB">
<feFlood flood-opacity="0" result="BackgroundImageFix"/>
<feBlend mode="normal" in="SourceGraphic" in2="BackgroundImageFix" result="shape"/>
<feGaussianBlur stdDeviation="350" result="effect1_foregroundBlur_565_4888"/>
</filter>
<filter id="filter2_f_565_4888" x="2.73145" y="-932.835" width="3146.64" height="1775" filterUnits="userSpaceOnUse" color-interpolation-filters="sRGB">
<feFlood flood-opacity="0" result="BackgroundImageFix"/>
<feBlend mode="normal" in="SourceGraphic" in2="BackgroundImageFix" result="shape"/>
<feGaussianBlur stdDeviation="350" result="effect1_foregroundBlur_565_4888"/>
</filter>
<clipPath id="clip0_565_4888">
<rect width="1920" height="1080" fill="white"/>
</clipPath>
<clipPath id="clip1_565_4888">
<rect width="876" height="851" fill="white" transform="translate(1215 99)"/>
</clipPath>
</defs>
</svg>
